<?xml version='1.0' encoding='utf-8'?>
<svg width="170.349999mm" height="120.472329mm" viewBox="-21.577882 -16.350877 43.436723 30.718657" version="1.1" xmlns="http://www.w3.org/2000/svg">
  <g transform="scale(1,-1)" stroke-linecap="round">
    <g fill="none" stroke="rgb(0,0,0)" stroke-width="0.08924480877348824">
      <line x1="13.1436" y1="-13.048231" x2="10.089612" y2="-11.509295" />
      <line x1="13.1436" y1="-13.048231" x2="20.539293" y2="-7.242315" />
      <path d="M 11.369513,-8.196938 A 2.45,1.5409503335066397 -8.459081985579763e-16 0,1 11.020406,-8.355188" />
      <path d="M 2.442665,-3.259387 A 2.45,1.5409503335066397 -3.522510103078724e-17 0,1 1.528759,-3.57225" />
      <path d="M 5.356035,-0.814477 A 4.050000000000001,2.5472852451844457 -180.0 0,0 2.442665,-3.259387" />
      <path d="M -7.048982,1.52355 A 2.450000000000002,1.540950333506641 2.410077710859616e-15 0,1 -7.962888,1.210688" />
      <path d="M -4.135612,3.968461 A 4.05,2.5472852451844448 -180.0 0,0 -7.048982,1.52355" />
      <line x1="-15.953717" y1="5.251392" x2="-11.379846" y2="8.842065" />
      <line x1="-17.204346" y1="2.244409" x2="-20.258334" y2="3.783345" />
      <path d="M -17.204346,2.244409 A 4.05,2.5472852451844448 2.8269292217893594e-18 0,1 -10.630502,4.06793" />
      <path d="M -10.630502,4.06793 A 2.45,1.5409503335066397 -180.0 0,0 -6.584115,5.134619" />
      <path d="M -10.411391,0.04453 A 4.0500000000000025,2.547285245184447 2.410077710859616e-15 0,1 -8.893682,-1.94342" />
      <line x1="-8.893682" y1="-1.94342" x2="-7.712699" y2="-2.538529" />
      <path d="M -7.712699,-2.538529 A 4.050000000000001,2.5472852451844457 9.565860822112884e-17 0,1 -1.138855,-0.715008" />
      <path d="M -1.138855,-0.715008 A 2.45,1.5409503335066397 -180.0 0,0 2.907532,0.351681" />
      <path d="M -0.919745,-4.738408 A 4.050000000000001,2.5472852451844457 -3.522510103078724e-17 0,1 0.597965,-6.726357" />
      <line x1="0.597965" y1="-6.726357" x2="1.778948" y2="-7.321467" />
      <path d="M 1.778948,-7.321467 A 4.05,2.5472852451844448 2.8269292217893594e-18 0,1 8.352792,-5.497945" />
      <path d="M 8.352792,-5.497945 A 2.45,1.5409503335066397 -180.0 0,0 12.399178,-4.431257" />
      <path d="M 8.571902,-9.521345 A 4.05,2.5472852451844448 -8.459081985579763e-16 0,1 10.089612,-11.509295" />
      <line x1="13.1436" y1="-13.048231" x2="13.1436" y2="-7.606164" />
      <line x1="13.1436" y1="-7.606164" x2="12.207097" y2="-7.134251" />
      <line x1="12.207097" y1="-7.134251" x2="11.270595" y2="-7.595263" />
      <line x1="11.270595" y1="-7.595263" x2="11.660804" y2="-9.968721" />
      <line x1="10.089612" y1="-9.176981" x2="11.660804" y2="-9.968721" />
      <line x1="10.089612" y1="-11.509295" x2="10.089612" y2="-9.176981" />
      <line x1="13.1436" y1="-7.606164" x2="20.539293" y2="-1.800247" />
      <line x1="20.539293" y1="-7.242315" x2="20.539293" y2="-1.800247" />
      <line x1="20.539293" y1="-1.800247" x2="19.60279" y2="-1.328334" />
      <line x1="19.60279" y1="-1.328334" x2="18.666287" y2="-1.789347" />
      <path d="M 11.485273,-4.74412 A 4.05,2.5472852451844448 -8.459081985579763e-16 0,1 8.571902,-7.189031" />
      <path d="M 8.571902,-7.189031 A 4.05,2.5472852451844448 -8.459081985579763e-16 0,1 10.089612,-9.176981" />
      <path d="M 8.352792,-3.165631 A 2.45,1.5409503335066397 -180.0 0,0 13.247682,-3.2651" />
      <path d="M 13.247682,-3.2651 A 2.45,1.5409503335066397 -180.0 0,0 11.485273,-4.74412" />
      <path d="M 1.778948,-4.989152 A 4.05,2.5472852451844448 2.8269292217893594e-18 0,1 8.352792,-3.165631" />
      <line x1="0.597965" y1="-4.394043" x2="1.778948" y2="-4.989152" />
      <path d="M 1.993626,0.038818 A 4.050000000000001,2.5472852451844457 -3.522510103078724e-17 0,1 -0.919745,-2.406093" />
      <path d="M -0.919745,-2.406093 A 4.050000000000001,2.5472852451844457 -3.522510103078724e-17 0,1 0.597965,-4.394043" />
      <path d="M -1.138855,1.617307 A 2.45,1.5409503335066397 -180.0 0,0 3.756035,1.517838" />
      <path d="M 3.756035,1.517838 A 2.45,1.5409503335066397 -180.0 0,0 1.993626,0.038818" />
      <path d="M -7.712699,-0.206214 A 4.050000000000001,2.5472852451844457 9.565860822112884e-17 0,1 -1.138855,1.617307" />
      <line x1="-8.893682" y1="0.388895" x2="-7.712699" y2="-0.206214" />
      <path d="M -7.498021,4.821756 A 4.0500000000000025,2.547285245184447 2.410077710859616e-15 0,1 -10.411391,2.376845" />
      <path d="M -10.411391,2.376845 A 4.0500000000000025,2.547285245184447 2.410077710859616e-15 0,1 -8.893682,0.388895" />
      <path d="M -10.630502,6.400245 A 2.45,1.5409503335066397 -180.0 0,0 -5.735612,6.300776" />
      <path d="M -5.735612,6.300776 A 2.45,1.5409503335066397 -180.0 0,0 -7.498021,4.821756" />
      <line x1="-17.204346" y1="2.244409" x2="-17.204346" y2="4.576724" />
      <path d="M -17.204346,4.576724 A 4.05,2.5472852451844448 2.8269292217893594e-18 0,1 -10.630502,6.400245" />
      <line x1="-20.258334" y1="9.225412" x2="-20.258334" y2="3.783345" />
      <line x1="-19.321831" y1="8.753499" x2="-20.258334" y2="9.225412" />
      <line x1="-18.385328" y1="7.34866" x2="-19.321831" y2="8.753499" />
      <line x1="-18.775538" y1="5.368463" x2="-18.385328" y2="7.34866" />
      <line x1="-18.775538" y1="5.368463" x2="-17.204346" y2="4.576724" />
      <line x1="-17.775127" y1="6.153826" x2="-16.203935" y2="5.362086" />
      <path d="M -16.203935,5.362086 A 2.45,1.5409503335066397 2.8269292217893594e-18 0,1 -12.227165,6.465204" />
      <path d="M -12.227165,6.465204 A 4.05,2.5472852451844448 -180.0 0,0 -4.135612,6.300776" />
      <path d="M -4.135612,6.300776 A 4.05,2.5472852451844448 -180.0 0,0 -7.048982,3.855865" />
      <path d="M -7.048982,3.855865 A 2.450000000000002,1.540950333506641 2.410077710859616e-15 0,1 -8.811391,2.376845" />
      <path d="M -8.811391,2.376845 A 2.450000000000002,1.540950333506641 2.410077710859616e-15 0,1 -7.893271,1.174258" />
      <line x1="-7.893271" y1="1.174258" x2="-6.712288" y2="0.579149" />
      <path d="M -6.712288,0.579149 A 2.45,1.5409503335066397 9.565860822112884e-17 0,1 -2.735518,1.682267" />
      <path d="M -2.735518,1.682267 A 4.050000000000001,2.5472852451844457 -180.0 0,0 5.356035,1.517838" />
      <path d="M 5.356035,1.517838 A 4.050000000000001,2.5472852451844457 -180.0 0,0 2.442665,-0.927073" />
      <path d="M 2.442665,-0.927073 A 2.45,1.5409503335066397 -3.522510103078724e-17 0,1 0.680255,-2.406093" />
      <path d="M 0.680255,-2.406093 A 2.45,1.5409503335066397 -3.522510103078724e-17 0,1 1.598376,-3.60868" />
      <line x1="1.598376" y1="-3.60868" x2="2.779359" y2="-4.203789" />
      <path d="M 2.779359,-4.203789 A 2.45,1.5409503335066397 2.8269292217893594e-18 0,1 6.756128,-3.100671" />
      <path d="M 6.756128,-3.100671 A 4.05,2.5472852451844448 -180.0 0,0 14.847682,-3.2651" />
      <path d="M 14.847682,-3.2651 A 4.05,2.5472852451844448 -180.0 0,0 11.934311,-5.710011" />
      <path d="M 11.934311,-5.710011 A 2.45,1.5409503335066397 -8.459081985579763e-16 0,1 10.171902,-7.189031" />
      <path d="M 10.171902,-7.189031 A 2.45,1.5409503335066397 -8.459081985579763e-16 0,1 11.090023,-8.391618" />
      <line x1="11.090023" y1="-8.391618" x2="11.429657" y2="-8.562763" />
      <line x1="12.207097" y1="-7.134251" x2="19.60279" y2="-1.328334" />
      <line x1="11.270595" y1="-7.595263" x2="18.666287" y2="-1.789347" />
      <line x1="-18.775538" y1="5.368463" x2="-17.775127" y2="6.153826" />
      <line x1="-17.775127" y1="6.153826" x2="-11.379846" y2="11.17438" />
      <line x1="-11.379846" y1="8.842065" x2="-11.379846" y2="11.17438" />
      <line x1="-18.385328" y1="7.34866" x2="-10.989636" y2="13.154576" />
      <line x1="-11.379846" y1="11.17438" x2="-10.989636" y2="13.154576" />
      <line x1="-19.321831" y1="8.753499" x2="-11.926139" y2="14.559416" />
      <line x1="-10.989636" y1="13.154576" x2="-11.926139" y2="14.559416" />
      <line x1="-20.258334" y1="9.225412" x2="-12.862642" y2="15.031329" />
      <line x1="-11.926139" y1="14.559416" x2="-12.862642" y2="15.031329" />
      <line x1="8.352792" y1="-5.497945" x2="8.352792" y2="-3.165631" />
      <line x1="1.778948" y1="-7.321467" x2="1.778948" y2="-4.989152" />
      <line x1="0.597965" y1="-6.726357" x2="0.597965" y2="-4.394043" />
      <line x1="-1.138855" y1="-0.715008" x2="-1.138855" y2="1.617307" />
      <line x1="-7.712699" y1="-2.538529" x2="-7.712699" y2="-0.206214" />
      <line x1="-8.893682" y1="-1.94342" x2="-8.893682" y2="0.388895" />
      <line x1="-10.630502" y1="4.06793" x2="-10.630502" y2="6.400245" />
      <line x1="-7.048982" y1="1.52355" x2="-7.048982" y2="3.855865" />
      <line x1="2.442665" y1="-3.259387" x2="2.442665" y2="-0.927073" />
      <line x1="11.934311" y1="-7.074219" x2="11.934311" y2="-5.710011" />
      <line x1="8.571902" y1="-7.189031" x2="8.571902" y2="-9.521345" />
      <line x1="-0.919745" y1="-2.406093" x2="-0.919745" y2="-4.738408" />
      <line x1="-10.411391" y1="2.376845" x2="-10.411391" y2="0.04453" />
      <line x1="-4.135612" y1="6.300776" x2="-4.135612" y2="3.968461" />
      <line x1="5.356035" y1="1.517838" x2="5.356035" y2="-0.814477" />
      <line x1="14.847682" y1="-3.2651" x2="14.847682" y2="-4.787105" />
    </g>
    <g fill="none" stroke="rgb(170,170,170)" stroke-width="0.03824777518863782" id="hidden" stroke-dasharray="0.458973 0.114743">
      <line x1="19.056497" y1="-6.495119" x2="20.539293" y2="-7.242315" />
      <line x1="12.661215" y1="-11.515672" x2="19.056497" y2="-6.495119" />
      <line x1="11.090023" y1="-10.723932" x2="12.661215" y2="-11.515672" />
      <path d="M 11.934311,-8.042325 A 2.45,1.5409503335066397 -8.459081985579763e-16 0,1 11.369513,-8.196938" />
      <path d="M 11.020406,-8.355188 A 2.45,1.5409503335066397 -8.459081985579763e-16 0,1 10.171902,-9.521345" />
      <path d="M 10.171902,-9.521345 A 2.45,1.5409503335066397 -8.459081985579763e-16 0,1 11.090023,-10.723932" />
      <path d="M 6.756128,-5.432986 A 4.05,2.5472852451844448 -180.0 0,0 14.847682,-5.597414" />
      <path d="M 14.847682,-5.597414 A 4.05,2.5472852451844448 -180.0 0,0 11.934311,-8.042325" />
      <path d="M 2.779359,-6.536104 A 2.45,1.5409503335066397 2.8269292217893594e-18 0,1 6.756128,-5.432986" />
      <line x1="1.598376" y1="-5.940995" x2="2.779359" y2="-6.536104" />
      <path d="M 1.528759,-3.57225 A 2.45,1.5409503335066397 -3.522510103078724e-17 0,1 0.680255,-4.738408" />
      <path d="M 0.680255,-4.738408 A 2.45,1.5409503335066397 -3.522510103078724e-17 0,1 1.598376,-5.940995" />
      <path d="M -2.735518,-0.650048 A 4.050000000000001,2.5472852451844457 -180.0 0,0 5.356035,-0.814477" />
      <path d="M -6.712288,-1.753166 A 2.45,1.5409503335066397 9.565860822112884e-17 0,1 -2.735518,-0.650048" />
      <line x1="-7.893271" y1="-1.158057" x2="-6.712288" y2="-1.753166" />
      <path d="M -7.962888,1.210688 A 2.450000000000002,1.540950333506641 2.410077710859616e-15 0,1 -8.811391,0.04453" />
      <path d="M -8.811391,0.04453 A 2.450000000000002,1.540950333506641 2.410077710859616e-15 0,1 -7.893271,-1.158057" />
      <path d="M -12.227165,4.13289 A 4.05,2.5472852451844448 -180.0 0,0 -4.135612,3.968461" />
      <path d="M -16.203935,3.029772 A 2.45,1.5409503335066397 2.8269292217893594e-18 0,1 -12.227165,4.13289" />
      <line x1="-17.775127" y1="3.821512" x2="-16.203935" y2="3.029772" />
      <line x1="-17.775127" y1="3.821512" x2="-15.953717" y2="5.251392" />
      <line x1="-12.862642" y1="9.589261" x2="-11.379846" y2="8.842065" />
      <line x1="-20.258334" y1="3.783345" x2="-12.862642" y2="9.589261" />
      <path d="M -6.584115,5.134619 A 2.45,1.5409503335066397 -180.0 0,0 -5.735612,3.968461" />
      <path d="M -5.735612,3.968461 A 2.45,1.5409503335066397 -180.0 0,0 -7.498021,2.489441" />
      <path d="M -7.498021,2.489441 A 4.0500000000000025,2.547285245184447 2.410077710859616e-15 0,1 -10.411391,0.04453" />
      <path d="M 2.907532,0.351681 A 2.45,1.5409503335066397 -180.0 0,0 3.756035,-0.814477" />
      <path d="M 3.756035,-0.814477 A 2.45,1.5409503335066397 -180.0 0,0 1.993626,-2.293497" />
      <path d="M 1.993626,-2.293497 A 4.050000000000001,2.5472852451844457 -3.522510103078724e-17 0,1 -0.919745,-4.738408" />
      <path d="M 12.399178,-4.431257 A 2.45,1.5409503335066397 -180.0 0,0 13.247682,-5.597414" />
      <path d="M 13.247682,-5.597414 A 2.45,1.5409503335066397 -180.0 0,0 11.485273,-7.076435" />
      <path d="M 11.485273,-7.076435 A 4.05,2.5472852451844448 -8.459081985579763e-16 0,1 8.571902,-9.521345" />
      <line x1="18.666287" y1="-1.789347" x2="19.056497" y2="-4.162804" />
      <line x1="19.056497" y1="-4.162804" x2="19.056497" y2="-6.495119" />
      <line x1="12.661215" y1="-11.515672" x2="12.661215" y2="-9.183358" />
      <line x1="12.661215" y1="-9.183358" x2="19.056497" y2="-4.162804" />
      <line x1="-17.775127" y1="3.821512" x2="-17.775127" y2="6.153826" />
      <line x1="11.429657" y1="-8.562763" x2="12.661215" y2="-9.183358" />
      <line x1="11.660804" y1="-9.968721" x2="12.661215" y2="-9.183358" />
      <line x1="-12.862642" y1="15.031329" x2="-12.862642" y2="9.589261" />
      <line x1="13.247682" y1="-3.2651" x2="13.247682" y2="-5.597414" />
      <line x1="3.756035" y1="1.517838" x2="3.756035" y2="-0.814477" />
      <line x1="-5.735612" y1="6.300776" x2="-5.735612" y2="3.968461" />
      <line x1="-8.811391" y1="2.376845" x2="-8.811391" y2="0.04453" />
      <line x1="0.680255" y1="-2.406093" x2="0.680255" y2="-4.738408" />
      <line x1="14.847682" y1="-4.787105" x2="14.847682" y2="-5.597414" />
      <line x1="10.171902" y1="-7.189031" x2="10.171902" y2="-9.521345" />
      <line x1="11.485273" y1="-7.076435" x2="11.485273" y2="-4.74412" />
      <line x1="1.993626" y1="-2.293497" x2="1.993626" y2="0.038818" />
      <line x1="-7.498021" y1="2.489441" x2="-7.498021" y2="4.821756" />
      <line x1="-16.203935" y1="3.029772" x2="-16.203935" y2="5.362086" />
      <line x1="-12.227165" y1="4.13289" x2="-12.227165" y2="6.465204" />
      <line x1="-7.893271" y1="-1.158057" x2="-7.893271" y2="1.174258" />
      <line x1="-6.712288" y1="-1.753166" x2="-6.712288" y2="0.579149" />
      <line x1="-2.735518" y1="-0.650048" x2="-2.735518" y2="1.682267" />
      <line x1="1.598376" y1="-5.940995" x2="1.598376" y2="-3.60868" />
      <line x1="2.779359" y1="-6.536104" x2="2.779359" y2="-4.203789" />
      <line x1="6.756128" y1="-5.432986" x2="6.756128" y2="-3.100671" />
      <line x1="11.934311" y1="-8.042325" x2="11.934311" y2="-7.074219" />
      <line x1="11.090023" y1="-10.723932" x2="11.090023" y2="-8.391618" />
    </g>
  </g>
</svg>